<svg xmlns="http://www.w3.org/2000/svg" width="240" height="400" viewBox="0 0 48 80" shape-rendering="crispEdges" role="img" aria-label="ferret"><rect x="10" y="5" width="4" height="1" fill="#2B2118"/><rect x="34" y="5" width="4" height="1" fill="#2B2118"/><rect x="9" y="6" width="1" height="1" fill="#2B2118"/><rect x="10" y="6" width="4" height="1" fill="#E5D5B4"/><rect x="14" y="6" width="1" height="1" fill="#2B2118"/><rect x="20" y="6" width="8" height="1" fill="#2B2118"/><rect x="33" y="6" width="1" height="1" fill="#2B2118"/><rect x="34" y="6" width="4" height="1" fill="#E5D5B4"/><rect x="38" y="6" width="1" height="1" fill="#2B2118"/><rect x="8" y="7" width="1" height="1" fill="#2B2118"/><rect x="9" y="7" width="6" height="1" fill="#E5D5B4"/><rect x="15" y="7" width="1" height="1" fill="#2B2118"/><rect x="17" y="7" width="3" height="1" fill="#2B2118"/><rect x="20" y="7" width="8" height="1" fill="#E5D5B4"/><rect x="28" y="7" width="3" height="1" fill="#2B2118"/><rect x="32" y="7" width="1" height="1" fill="#2B2118"/><rect x="33" y="7" width="6" height="1" fill="#E5D5B4"/><rect x="39" y="7" width="1" height="1" fill="#2B2118"/><rect x="7" y="8" width="1" height="1" fill="#2B2118"/><rect x="8" y="8" width="3" height="1" fill="#E5D5B4"/><rect x="11" y="8" width="2" height="1" fill="#5C4630"/><rect x="13" y="8" width="3" height="1" fill="#E5D5B4"/><rect x="16" y="8" width="1" height="1" fill="#2B2118"/><rect x="17" y="8" width="14" height="1" fill="#E5D5B4"/><rect x="31" y="8" width="1" height="1" fill="#2B2118"/><rect x="32" y="8" width="3" height="1" fill="#E5D5B4"/><rect x="35" y="8" width="2" height="1" fill="#5C4630"/><rect x="37" y="8" width="3" height="1" fill="#E5D5B4"/><rect x="40" y="8" width="1" height="1" fill="#2B2118"/><rect x="7" y="9" width="1" height="1" fill="#2B2118"/><rect x="8" y="9" width="2" height="1" fill="#E5D5B4"/><rect x="10" y="9" width="4" height="1" fill="#5C4630"/><rect x="14" y="9" width="20" height="1" fill="#E5D5B4"/><rect x="34" y="9" width="4" height="1" fill="#5C4630"/><rect x="38" y="9" width="2" height="1" fill="#E5D5B4"/><rect x="40" y="9" width="1" height="1" fill="#2B2118"/><rect x="7" y="10" width="1" height="1" fill="#2B2118"/><rect x="8" y="10" width="2" height="1" fill="#E5D5B4"/><rect x="10" y="10" width="4" height="1" fill="#5C4630"/><rect x="14" y="10" width="20" height="1" fill="#E5D5B4"/><rect x="34" y="10" width="4" height="1" fill="#5C4630"/><rect x="38" y="10" width="2" height="1" fill="#E5D5B4"/><rect x="40" y="10" width="1" height="1" fill="#2B2118"/><rect x="7" y="11" width="1" height="1" fill="#2B2118"/><rect x="8" y="11" width="3" height="1" fill="#E5D5B4"/><rect x="11" y="11" width="2" height="1" fill="#5C4630"/><rect x="13" y="11" width="22" height="1" fill="#E5D5B4"/><rect x="35" y="11" width="2" height="1" fill="#5C4630"/><rect x="37" y="11" width="3" height="1" fill="#E5D5B4"/><rect x="40" y="11" width="1" height="1" fill="#2B2118"/><rect x="8" y="12" width="1" height="1" fill="#2B2118"/><rect x="9" y="12" width="30" height="1" fill="#E5D5B4"/><rect x="39" y="12" width="1" height="1" fill="#2B2118"/><rect x="9" y="13" width="1" height="1" fill="#2B2118"/><rect x="10" y="13" width="28" height="1" fill="#E5D5B4"/><rect x="38" y="13" width="1" height="1" fill="#2B2118"/><rect x="10" y="14" width="28" height="1" fill="#5C4630"/><rect x="10" y="15" width="28" height="1" fill="#2B2118"/><rect x="10" y="16" width="5" height="1" fill="#2B2118"/><rect x="15" y="16" width="2" height="1" fill="#CFE7F2"/><rect x="17" y="16" width="14" height="1" fill="#2B2118"/><rect x="31" y="16" width="2" height="1" fill="#CFE7F2"/><rect x="33" y="16" width="5" height="1" fill="#2B2118"/><rect x="9" y="17" width="1" height="1" fill="#5C4630"/><rect x="10" y="17" width="2" height="1" fill="#2B2118"/><rect x="12" y="17" width="8" height="1" fill="#EFF8FC"/><rect x="20" y="17" width="2" height="1" fill="#2B2118"/><rect x="22" y="17" width="4" height="1" fill="#5C4630"/><rect x="26" y="17" width="2" height="1" fill="#2B2118"/><rect x="28" y="17" width="8" height="1" fill="#EFF8FC"/><rect x="36" y="17" width="2" height="1" fill="#2B2118"/><rect x="38" y="17" width="1" height="1" fill="#5C4630"/><rect x="9" y="18" width="1" height="1" fill="#5C4630"/><rect x="10" y="18" width="1" height="1" fill="#2B2118"/><rect x="11" y="18" width="3" height="1" fill="#EFF8FC"/><rect x="14" y="18" width="1" height="1" fill="#FFFFFF"/><rect x="15" y="18" width="2" height="1" fill="#1B1512"/><rect x="17" y="18" width="4" height="1" fill="#EFF8FC"/><rect x="21" y="18" width="1" height="1" fill="#2B2118"/><rect x="22" y="18" width="4" height="1" fill="#5C4630"/><rect x="26" y="18" width="1" height="1" fill="#2B2118"/><rect x="27" y="18" width="3" height="1" fill="#EFF8FC"/><rect x="30" y="18" width="1" height="1" fill="#FFFFFF"/><rect x="31" y="18" width="2" height="1" fill="#1B1512"/><rect x="33" y="18" width="4" height="1" fill="#EFF8FC"/><rect x="37" y="18" width="1" height="1" fill="#2B2118"/><rect x="38" y="18" width="1" height="1" fill="#5C4630"/><rect x="9" y="19" width="1" height="1" fill="#5C4630"/><rect x="10" y="19" width="1" height="1" fill="#2B2118"/><rect x="11" y="19" width="1" height="1" fill="#CFE7F2"/><rect x="12" y="19" width="2" height="1" fill="#EFF8FC"/><rect x="14" y="19" width="2" height="1" fill="#FFFFFF"/><rect x="16" y="19" width="2" height="1" fill="#1B1512"/><rect x="18" y="19" width="2" height="1" fill="#EFF8FC"/><rect x="20" y="19" width="1" height="1" fill="#CFE7F2"/><rect x="21" y="19" width="1" height="1" fill="#2B2118"/><rect x="22" y="19" width="4" height="1" fill="#5C4630"/><rect x="26" y="19" width="1" height="1" fill="#2B2118"/><rect x="27" y="19" width="1" height="1" fill="#CFE7F2"/><rect x="28" y="19" width="2" height="1" fill="#EFF8FC"/><rect x="30" y="19" width="2" height="1" fill="#FFFFFF"/><rect x="32" y="19" width="2" height="1" fill="#1B1512"/><rect x="34" y="19" width="2" height="1" fill="#EFF8FC"/><rect x="36" y="19" width="1" height="1" fill="#CFE7F2"/><rect x="37" y="19" width="1" height="1" fill="#2B2118"/><rect x="38" y="19" width="1" height="1" fill="#5C4630"/><rect x="9" y="20" width="1" height="1" fill="#5C4630"/><rect x="10" y="20" width="1" height="1" fill="#2B2118"/><rect x="11" y="20" width="3" height="1" fill="#CFE7F2"/><rect x="14" y="20" width="4" height="1" fill="#1B1512"/><rect x="18" y="20" width="3" height="1" fill="#CFE7F2"/><rect x="21" y="20" width="1" height="1" fill="#2B2118"/><rect x="22" y="20" width="4" height="1" fill="#5C4630"/><rect x="26" y="20" width="1" height="1" fill="#2B2118"/><rect x="27" y="20" width="3" height="1" fill="#CFE7F2"/><rect x="30" y="20" width="4" height="1" fill="#1B1512"/><rect x="34" y="20" width="3" height="1" fill="#CFE7F2"/><rect x="37" y="20" width="1" height="1" fill="#2B2118"/><rect x="38" y="20" width="1" height="1" fill="#5C4630"/><rect x="9" y="21" width="1" height="1" fill="#5C4630"/><rect x="10" y="21" width="1" height="1" fill="#2B2118"/><rect x="11" y="21" width="3" height="1" fill="#CFE7F2"/><rect x="14" y="21" width="4" height="1" fill="#1B1512"/><rect x="18" y="21" width="3" height="1" fill="#CFE7F2"/><rect x="21" y="21" width="1" height="1" fill="#2B2118"/><rect x="22" y="21" width="4" height="1" fill="#5C4630"/><rect x="26" y="21" width="1" height="1" fill="#2B2118"/><rect x="27" y="21" width="3" height="1" fill="#CFE7F2"/><rect x="30" y="21" width="4" height="1" fill="#1B1512"/><rect x="34" y="21" width="3" height="1" fill="#CFE7F2"/><rect x="37" y="21" width="1" height="1" fill="#2B2118"/><rect x="38" y="21" width="1" height="1" fill="#5C4630"/><rect x="8" y="22" width="1" height="1" fill="#2B2118"/><rect x="9" y="22" width="1" height="1" fill="#E5D5B4"/><rect x="10" y="22" width="2" height="1" fill="#2B2118"/><rect x="12" y="22" width="3" height="1" fill="#CFE7F2"/><rect x="15" y="22" width="2" height="1" fill="#1B1512"/><rect x="17" y="22" width="3" height="1" fill="#CFE7F2"/><rect x="20" y="22" width="2" height="1" fill="#2B2118"/><rect x="22" y="22" width="4" height="1" fill="#E5D5B4"/><rect x="26" y="22" width="2" height="1" fill="#2B2118"/><rect x="28" y="22" width="3" height="1" fill="#CFE7F2"/><rect x="31" y="22" width="2" height="1" fill="#1B1512"/><rect x="33" y="22" width="3" height="1" fill="#CFE7F2"/><rect x="36" y="22" width="2" height="1" fill="#2B2118"/><rect x="38" y="22" width="1" height="1" fill="#E5D5B4"/><rect x="39" y="22" width="1" height="1" fill="#2B2118"/><rect x="9" y="23" width="1" height="1" fill="#2B2118"/><rect x="10" y="23" width="1" height="1" fill="#E5D5B4"/><rect x="11" y="23" width="4" height="1" fill="#2B2118"/><rect x="15" y="23" width="2" height="1" fill="#CFE7F2"/><rect x="17" y="23" width="4" height="1" fill="#2B2118"/><rect x="21" y="23" width="6" height="1" fill="#E5D5B4"/><rect x="27" y="23" width="4" height="1" fill="#2B2118"/><rect x="31" y="23" width="2" height="1" fill="#CFE7F2"/><rect x="33" y="23" width="4" height="1" fill="#2B2118"/><rect x="37" y="23" width="1" height="1" fill="#E5D5B4"/><rect x="38" y="23" width="1" height="1" fill="#2B2118"/><rect x="9" y="24" width="1" height="1" fill="#2B2118"/><rect x="10" y="24" width="3" height="1" fill="#E5D5B4"/><rect x="13" y="24" width="6" height="1" fill="#2B2118"/><rect x="19" y="24" width="10" height="1" fill="#E5D5B4"/><rect x="29" y="24" width="6" height="1" fill="#2B2118"/><rect x="35" y="24" width="3" height="1" fill="#E5D5B4"/><rect x="38" y="24" width="1" height="1" fill="#2B2118"/><rect x="9" y="25" width="1" height="1" fill="#2B2118"/><rect x="10" y="25" width="11" height="1" fill="#E5D5B4"/><rect x="21" y="25" width="6" height="1" fill="#FAF3E6"/><rect x="27" y="25" width="11" height="1" fill="#E5D5B4"/><rect x="38" y="25" width="1" height="1" fill="#2B2118"/><rect x="10" y="26" width="1" height="1" fill="#2B2118"/><rect x="11" y="26" width="7" height="1" fill="#E5D5B4"/><rect x="18" y="26" width="4" height="1" fill="#FAF3E6"/><rect x="22" y="26" width="4" height="1" fill="#C4675F"/><rect x="26" y="26" width="4" height="1" fill="#FAF3E6"/><rect x="30" y="26" width="7" height="1" fill="#E5D5B4"/><rect x="37" y="26" width="1" height="1" fill="#2B2118"/><rect x="11" y="27" width="1" height="1" fill="#2B2118"/><rect x="12" y="27" width="5" height="1" fill="#E5D5B4"/><rect x="17" y="27" width="4" height="1" fill="#FAF3E6"/><rect x="21" y="27" width="6" height="1" fill="#C4675F"/><rect x="27" y="27" width="4" height="1" fill="#FAF3E6"/><rect x="31" y="27" width="5" height="1" fill="#E5D5B4"/><rect x="36" y="27" width="1" height="1" fill="#2B2118"/><rect x="12" y="28" width="1" height="1" fill="#2B2118"/><rect x="13" y="28" width="3" height="1" fill="#E5D5B4"/><rect x="16" y="28" width="5" height="1" fill="#FAF3E6"/><rect x="21" y="28" width="6" height="1" fill="#C4675F"/><rect x="27" y="28" width="5" height="1" fill="#FAF3E6"/><rect x="32" y="28" width="3" height="1" fill="#E5D5B4"/><rect x="35" y="28" width="1" height="1" fill="#2B2118"/><rect x="13" y="29" width="1" height="1" fill="#2B2118"/><rect x="14" y="29" width="2" height="1" fill="#E5D5B4"/><rect x="16" y="29" width="6" height="1" fill="#FAF3E6"/><rect x="22" y="29" width="4" height="1" fill="#C4675F"/><rect x="26" y="29" width="6" height="1" fill="#FAF3E6"/><rect x="32" y="29" width="2" height="1" fill="#E5D5B4"/><rect x="34" y="29" width="1" height="1" fill="#2B2118"/><rect x="14" y="30" width="1" height="1" fill="#2B2118"/><rect x="15" y="30" width="1" height="1" fill="#E5D5B4"/><rect x="16" y="30" width="1" height="1" fill="#FAF3E6"/><rect x="17" y="30" width="2" height="1" fill="#2B2118"/><rect x="19" y="30" width="4" height="1" fill="#FAF3E6"/><rect x="23" y="30" width="2" height="1" fill="#2B2118"/><rect x="25" y="30" width="4" height="1" fill="#FAF3E6"/><rect x="29" y="30" width="2" height="1" fill="#2B2118"/><rect x="31" y="30" width="1" height="1" fill="#FAF3E6"/><rect x="32" y="30" width="1" height="1" fill="#E5D5B4"/><rect x="33" y="30" width="1" height="1" fill="#2B2118"/><rect x="15" y="31" width="1" height="1" fill="#2B2118"/><rect x="16" y="31" width="1" height="1" fill="#FAF3E6"/><rect x="17" y="31" width="2" height="1" fill="#2B2118"/><rect x="19" y="31" width="4" height="1" fill="#FAF3E6"/><rect x="23" y="31" width="2" height="1" fill="#2B2118"/><rect x="25" y="31" width="4" height="1" fill="#FAF3E6"/><rect x="29" y="31" width="2" height="1" fill="#2B2118"/><rect x="31" y="31" width="1" height="1" fill="#FAF3E6"/><rect x="32" y="31" width="1" height="1" fill="#2B2118"/><rect x="15" y="32" width="1" height="1" fill="#2B2118"/><rect x="16" y="32" width="3" height="1" fill="#FAF3E6"/><rect x="19" y="32" width="10" height="1" fill="#2B2118"/><rect x="29" y="32" width="3" height="1" fill="#FAF3E6"/><rect x="32" y="32" width="1" height="1" fill="#2B2118"/><rect x="15" y="33" width="1" height="1" fill="#2B2118"/><rect x="16" y="33" width="3" height="1" fill="#FAF3E6"/><rect x="19" y="33" width="10" height="1" fill="#2B2118"/><rect x="29" y="33" width="3" height="1" fill="#FAF3E6"/><rect x="32" y="33" width="1" height="1" fill="#2B2118"/><rect x="16" y="34" width="1" height="1" fill="#2B2118"/><rect x="17" y="34" width="14" height="1" fill="#FAF3E6"/><rect x="31" y="34" width="1" height="1" fill="#2B2118"/><rect x="17" y="35" width="1" height="1" fill="#2B2118"/><rect x="18" y="35" width="12" height="1" fill="#FAF3E6"/><rect x="30" y="35" width="1" height="1" fill="#2B2118"/><rect x="18" y="36" width="3" height="1" fill="#2B2118"/><rect x="21" y="36" width="6" height="1" fill="#FAF3E6"/><rect x="27" y="36" width="3" height="1" fill="#2B2118"/><rect x="21" y="37" width="6" height="1" fill="#2B2118"/><rect x="20" y="38" width="1" height="1" fill="#2B2118"/><rect x="21" y="38" width="6" height="1" fill="#E5D5B4"/><rect x="27" y="38" width="1" height="1" fill="#2B2118"/><rect x="41" y="38" width="4" height="1" fill="#2B2118"/><rect x="20" y="39" width="1" height="1" fill="#2B2118"/><rect x="21" y="39" width="6" height="1" fill="#E5D5B4"/><rect x="27" y="39" width="1" height="1" fill="#2B2118"/><rect x="40" y="39" width="1" height="1" fill="#2B2118"/><rect x="41" y="39" width="4" height="1" fill="#E5D5B4"/><rect x="45" y="39" width="1" height="1" fill="#2B2118"/><rect x="20" y="40" width="1" height="1" fill="#2B2118"/><rect x="21" y="40" width="6" height="1" fill="#E5D5B4"/><rect x="27" y="40" width="1" height="1" fill="#2B2118"/><rect x="39" y="40" width="1" height="1" fill="#2B2118"/><rect x="40" y="40" width="6" height="1" fill="#E5D5B4"/><rect x="46" y="40" width="1" height="1" fill="#2B2118"/><rect x="14" y="41" width="7" height="1" fill="#2B2118"/><rect x="21" y="41" width="6" height="1" fill="#E5D5B4"/><rect x="27" y="41" width="7" height="1" fill="#2B2118"/><rect x="39" y="41" width="1" height="1" fill="#2B2118"/><rect x="40" y="41" width="6" height="1" fill="#E5D5B4"/><rect x="46" y="41" width="1" height="1" fill="#2B2118"/><rect x="13" y="42" width="1" height="1" fill="#2B2118"/><rect x="14" y="42" width="9" height="1" fill="#F4F1E8"/><rect x="23" y="42" width="2" height="1" fill="#5C4630"/><rect x="25" y="42" width="9" height="1" fill="#F4F1E8"/><rect x="34" y="42" width="1" height="1" fill="#2B2118"/><rect x="39" y="42" width="1" height="1" fill="#2B2118"/><rect x="40" y="42" width="6" height="1" fill="#E5D5B4"/><rect x="46" y="42" width="1" height="1" fill="#2B2118"/><rect x="9" y="43" width="5" height="1" fill="#2B2118"/><rect x="14" y="43" width="9" height="1" fill="#F4F1E8"/><rect x="23" y="43" width="2" height="1" fill="#5C4630"/><rect x="25" y="43" width="9" height="1" fill="#F4F1E8"/><rect x="34" y="43" width="6" height="1" fill="#2B2118"/><rect x="40" y="43" width="6" height="1" fill="#E5D5B4"/><rect x="46" y="43" width="1" height="1" fill="#2B2118"/><rect x="8" y="44" width="1" height="1" fill="#2B2118"/><rect x="9" y="44" width="5" height="1" fill="#E5D5B4"/><rect x="14" y="44" width="9" height="1" fill="#F4F1E8"/><rect x="23" y="44" width="2" height="1" fill="#5C4630"/><rect x="25" y="44" width="9" height="1" fill="#F4F1E8"/><rect x="34" y="44" width="5" height="1" fill="#E5D5B4"/><rect x="39" y="44" width="2" height="1" fill="#2B2118"/><rect x="41" y="44" width="4" height="1" fill="#E5D5B4"/><rect x="45" y="44" width="1" height="1" fill="#2B2118"/><rect x="8" y="45" width="1" height="1" fill="#2B2118"/><rect x="9" y="45" width="5" height="1" fill="#E5D5B4"/><rect x="14" y="45" width="9" height="1" fill="#F4F1E8"/><rect x="23" y="45" width="2" height="1" fill="#5C4630"/><rect x="25" y="45" width="9" height="1" fill="#F4F1E8"/><rect x="34" y="45" width="5" height="1" fill="#E5D5B4"/><rect x="39" y="45" width="1" height="1" fill="#2B2118"/><rect x="40" y="45" width="6" height="1" fill="#E5D5B4"/><rect x="46" y="45" width="1" height="1" fill="#2B2118"/><rect x="8" y="46" width="1" height="1" fill="#2B2118"/><rect x="9" y="46" width="5" height="1" fill="#E5D5B4"/><rect x="14" y="46" width="9" height="1" fill="#F4F1E8"/><rect x="23" y="46" width="2" height="1" fill="#5C4630"/><rect x="25" y="46" width="9" height="1" fill="#F4F1E8"/><rect x="34" y="46" width="5" height="1" fill="#E5D5B4"/><rect x="39" y="46" width="1" height="1" fill="#2B2118"/><rect x="40" y="46" width="6" height="1" fill="#E5D5B4"/><rect x="46" y="46" width="1" height="1" fill="#2B2118"/><rect x="8" y="47" width="1" height="1" fill="#2B2118"/><rect x="9" y="47" width="5" height="1" fill="#E5D5B4"/><rect x="14" y="47" width="9" height="1" fill="#F4F1E8"/><rect x="23" y="47" width="2" height="1" fill="#5C4630"/><rect x="25" y="47" width="9" height="1" fill="#F4F1E8"/><rect x="34" y="47" width="5" height="1" fill="#E5D5B4"/><rect x="39" y="47" width="1" height="1" fill="#2B2118"/><rect x="40" y="47" width="6" height="1" fill="#E5D5B4"/><rect x="46" y="47" width="1" height="1" fill="#2B2118"/><rect x="8" y="48" width="1" height="1" fill="#2B2118"/><rect x="9" y="48" width="5" height="1" fill="#E5D5B4"/><rect x="14" y="48" width="5" height="1" fill="#F4F1E8"/><rect x="19" y="48" width="5" height="1" fill="#12C2C9"/><rect x="24" y="48" width="1" height="1" fill="#5C4630"/><rect x="25" y="48" width="9" height="1" fill="#F4F1E8"/><rect x="34" y="48" width="5" height="1" fill="#E5D5B4"/><rect x="39" y="48" width="1" height="1" fill="#2B2118"/><rect x="40" y="48" width="6" height="1" fill="#E5D5B4"/><rect x="46" y="48" width="1" height="1" fill="#2B2118"/><rect x="8" y="49" width="1" height="1" fill="#2B2118"/><rect x="9" y="49" width="5" height="1" fill="#E5D5B4"/><rect x="14" y="49" width="5" height="1" fill="#F4F1E8"/><rect x="19" y="49" width="5" height="1" fill="#12C2C9"/><rect x="24" y="49" width="1" height="1" fill="#5C4630"/><rect x="25" y="49" width="9" height="1" fill="#F4F1E8"/><rect x="34" y="49" width="11" height="1" fill="#E5D5B4"/><rect x="45" y="49" width="1" height="1" fill="#2B2118"/><rect x="8" y="50" width="1" height="1" fill="#2B2118"/><rect x="9" y="50" width="5" height="1" fill="#E5D5B4"/><rect x="14" y="50" width="5" height="1" fill="#F4F1E8"/><rect x="19" y="50" width="5" height="1" fill="#12C2C9"/><rect x="24" y="50" width="1" height="1" fill="#5C4630"/><rect x="25" y="50" width="9" height="1" fill="#F4F1E8"/><rect x="34" y="50" width="10" height="1" fill="#E5D5B4"/><rect x="44" y="50" width="1" height="1" fill="#2B2118"/><rect x="8" y="51" width="1" height="1" fill="#2B2118"/><rect x="9" y="51" width="5" height="1" fill="#E5D5B4"/><rect x="14" y="51" width="9" height="1" fill="#F4F1E8"/><rect x="23" y="51" width="2" height="1" fill="#5C4630"/><rect x="25" y="51" width="9" height="1" fill="#F4F1E8"/><rect x="34" y="51" width="10" height="1" fill="#E5D5B4"/><rect x="44" y="51" width="1" height="1" fill="#2B2118"/><rect x="8" y="52" width="1" height="1" fill="#2B2118"/><rect x="9" y="52" width="5" height="1" fill="#E5D5B4"/><rect x="14" y="52" width="9" height="1" fill="#F4F1E8"/><rect x="23" y="52" width="2" height="1" fill="#5C4630"/><rect x="25" y="52" width="9" height="1" fill="#F4F1E8"/><rect x="34" y="52" width="10" height="1" fill="#E5D5B4"/><rect x="44" y="52" width="1" height="1" fill="#2B2118"/><rect x="8" y="53" width="1" height="1" fill="#2B2118"/><rect x="9" y="53" width="5" height="1" fill="#E5D5B4"/><rect x="14" y="53" width="9" height="1" fill="#F4F1E8"/><rect x="23" y="53" width="2" height="1" fill="#5C4630"/><rect x="25" y="53" width="9" height="1" fill="#F4F1E8"/><rect x="34" y="53" width="10" height="1" fill="#E5D5B4"/><rect x="44" y="53" width="1" height="1" fill="#2B2118"/><rect x="7" y="54" width="1" height="1" fill="#2B2118"/><rect x="8" y="54" width="7" height="1" fill="#A88C63"/><rect x="15" y="54" width="8" height="1" fill="#F4F1E8"/><rect x="23" y="54" width="2" height="1" fill="#5C4630"/><rect x="25" y="54" width="8" height="1" fill="#F4F1E8"/><rect x="33" y="54" width="7" height="1" fill="#A88C63"/><rect x="40" y="54" width="3" height="1" fill="#E5D5B4"/><rect x="43" y="54" width="1" height="1" fill="#2B2118"/><rect x="7" y="55" width="1" height="1" fill="#2B2118"/><rect x="8" y="55" width="2" height="1" fill="#A88C63"/><rect x="10" y="55" width="1" height="1" fill="#2B2118"/><rect x="11" y="55" width="1" height="1" fill="#A88C63"/><rect x="12" y="55" width="1" height="1" fill="#2B2118"/><rect x="13" y="55" width="2" height="1" fill="#A88C63"/><rect x="15" y="55" width="8" height="1" fill="#F4F1E8"/><rect x="23" y="55" width="2" height="1" fill="#5C4630"/><rect x="25" y="55" width="8" height="1" fill="#F4F1E8"/><rect x="33" y="55" width="2" height="1" fill="#A88C63"/><rect x="35" y="55" width="1" height="1" fill="#2B2118"/><rect x="36" y="55" width="1" height="1" fill="#A88C63"/><rect x="37" y="55" width="1" height="1" fill="#2B2118"/><rect x="38" y="55" width="2" height="1" fill="#A88C63"/><rect x="40" y="55" width="1" height="1" fill="#E5D5B4"/><rect x="41" y="55" width="2" height="1" fill="#2B2118"/><rect x="7" y="56" width="1" height="1" fill="#2B2118"/><rect x="8" y="56" width="2" height="1" fill="#A88C63"/><rect x="10" y="56" width="1" height="1" fill="#2B2118"/><rect x="11" y="56" width="1" height="1" fill="#A88C63"/><rect x="12" y="56" width="1" height="1" fill="#2B2118"/><rect x="13" y="56" width="2" height="1" fill="#A88C63"/><rect x="15" y="56" width="8" height="1" fill="#F4F1E8"/><rect x="23" y="56" width="2" height="1" fill="#5C4630"/><rect x="25" y="56" width="8" height="1" fill="#F4F1E8"/><rect x="33" y="56" width="2" height="1" fill="#A88C63"/><rect x="35" y="56" width="1" height="1" fill="#2B2118"/><rect x="36" y="56" width="1" height="1" fill="#A88C63"/><rect x="37" y="56" width="1" height="1" fill="#2B2118"/><rect x="38" y="56" width="2" height="1" fill="#A88C63"/><rect x="40" y="56" width="1" height="1" fill="#E5D5B4"/><rect x="41" y="56" width="1" height="1" fill="#2B2118"/><rect x="7" y="57" width="1" height="1" fill="#2B2118"/><rect x="8" y="57" width="2" height="1" fill="#A88C63"/><rect x="10" y="57" width="1" height="1" fill="#2B2118"/><rect x="11" y="57" width="1" height="1" fill="#A88C63"/><rect x="12" y="57" width="1" height="1" fill="#2B2118"/><rect x="13" y="57" width="2" height="1" fill="#A88C63"/><rect x="15" y="57" width="8" height="1" fill="#F4F1E8"/><rect x="23" y="57" width="2" height="1" fill="#5C4630"/><rect x="25" y="57" width="8" height="1" fill="#F4F1E8"/><rect x="33" y="57" width="2" height="1" fill="#A88C63"/><rect x="35" y="57" width="1" height="1" fill="#2B2118"/><rect x="36" y="57" width="1" height="1" fill="#A88C63"/><rect x="37" y="57" width="1" height="1" fill="#2B2118"/><rect x="38" y="57" width="2" height="1" fill="#A88C63"/><rect x="40" y="57" width="1" height="1" fill="#E5D5B4"/><rect x="41" y="57" width="1" height="1" fill="#2B2118"/><rect x="7" y="58" width="1" height="1" fill="#2B2118"/><rect x="8" y="58" width="7" height="1" fill="#A88C63"/><rect x="15" y="58" width="8" height="1" fill="#F4F1E8"/><rect x="23" y="58" width="2" height="1" fill="#5C4630"/><rect x="25" y="58" width="8" height="1" fill="#F4F1E8"/><rect x="33" y="58" width="7" height="1" fill="#A88C63"/><rect x="40" y="58" width="1" height="1" fill="#E5D5B4"/><rect x="41" y="58" width="1" height="1" fill="#2B2118"/><rect x="8" y="59" width="7" height="1" fill="#2B2118"/><rect x="15" y="59" width="8" height="1" fill="#F4F1E8"/><rect x="23" y="59" width="2" height="1" fill="#5C4630"/><rect x="25" y="59" width="8" height="1" fill="#F4F1E8"/><rect x="33" y="59" width="7" height="1" fill="#E5D5B4"/><rect x="40" y="59" width="1" height="1" fill="#2B2118"/><rect x="14" y="60" width="1" height="1" fill="#2B2118"/><rect x="15" y="60" width="8" height="1" fill="#F4F1E8"/><rect x="23" y="60" width="2" height="1" fill="#5C4630"/><rect x="25" y="60" width="8" height="1" fill="#F4F1E8"/><rect x="33" y="60" width="4" height="1" fill="#E5D5B4"/><rect x="37" y="60" width="3" height="1" fill="#2B2118"/><rect x="15" y="61" width="2" height="1" fill="#2B2118"/><rect x="17" y="61" width="6" height="1" fill="#E5D5B4"/><rect x="23" y="61" width="2" height="1" fill="#2B2118"/><rect x="25" y="61" width="12" height="1" fill="#E5D5B4"/><rect x="37" y="61" width="1" height="1" fill="#2B2118"/><rect x="16" y="62" width="1" height="1" fill="#2B2118"/><rect x="17" y="62" width="6" height="1" fill="#E5D5B4"/><rect x="23" y="62" width="2" height="1" fill="#2B2118"/><rect x="25" y="62" width="6" height="1" fill="#E5D5B4"/><rect x="31" y="62" width="1" height="1" fill="#2B2118"/><rect x="32" y="62" width="4" height="1" fill="#E5D5B4"/><rect x="36" y="62" width="1" height="1" fill="#2B2118"/><rect x="16" y="63" width="1" height="1" fill="#2B2118"/><rect x="17" y="63" width="6" height="1" fill="#E5D5B4"/><rect x="23" y="63" width="2" height="1" fill="#2B2118"/><rect x="25" y="63" width="6" height="1" fill="#E5D5B4"/><rect x="31" y="63" width="5" height="1" fill="#2B2118"/><rect x="16" y="64" width="1" height="1" fill="#2B2118"/><rect x="17" y="64" width="6" height="1" fill="#E5D5B4"/><rect x="23" y="64" width="2" height="1" fill="#2B2118"/><rect x="25" y="64" width="6" height="1" fill="#E5D5B4"/><rect x="31" y="64" width="1" height="1" fill="#2B2118"/><rect x="16" y="65" width="1" height="1" fill="#2B2118"/><rect x="17" y="65" width="6" height="1" fill="#E5D5B4"/><rect x="23" y="65" width="2" height="1" fill="#2B2118"/><rect x="25" y="65" width="6" height="1" fill="#E5D5B4"/><rect x="31" y="65" width="1" height="1" fill="#2B2118"/><rect x="16" y="66" width="1" height="1" fill="#2B2118"/><rect x="17" y="66" width="6" height="1" fill="#E5D5B4"/><rect x="23" y="66" width="2" height="1" fill="#2B2118"/><rect x="25" y="66" width="6" height="1" fill="#E5D5B4"/><rect x="31" y="66" width="1" height="1" fill="#2B2118"/><rect x="16" y="67" width="1" height="1" fill="#2B2118"/><rect x="17" y="67" width="6" height="1" fill="#E5D5B4"/><rect x="23" y="67" width="2" height="1" fill="#2B2118"/><rect x="25" y="67" width="6" height="1" fill="#E5D5B4"/><rect x="31" y="67" width="1" height="1" fill="#2B2118"/><rect x="16" y="68" width="1" height="1" fill="#2B2118"/><rect x="17" y="68" width="6" height="1" fill="#E5D5B4"/><rect x="23" y="68" width="2" height="1" fill="#2B2118"/><rect x="25" y="68" width="6" height="1" fill="#E5D5B4"/><rect x="31" y="68" width="1" height="1" fill="#2B2118"/><rect x="16" y="69" width="1" height="1" fill="#2B2118"/><rect x="17" y="69" width="6" height="1" fill="#E5D5B4"/><rect x="23" y="69" width="2" height="1" fill="#2B2118"/><rect x="25" y="69" width="6" height="1" fill="#E5D5B4"/><rect x="31" y="69" width="1" height="1" fill="#2B2118"/><rect x="16" y="70" width="1" height="1" fill="#2B2118"/><rect x="17" y="70" width="6" height="1" fill="#E5D5B4"/><rect x="23" y="70" width="2" height="1" fill="#2B2118"/><rect x="25" y="70" width="6" height="1" fill="#E5D5B4"/><rect x="31" y="70" width="1" height="1" fill="#2B2118"/><rect x="16" y="71" width="1" height="1" fill="#2B2118"/><rect x="17" y="71" width="6" height="1" fill="#E5D5B4"/><rect x="23" y="71" width="2" height="1" fill="#2B2118"/><rect x="25" y="71" width="6" height="1" fill="#E5D5B4"/><rect x="31" y="71" width="1" height="1" fill="#2B2118"/><rect x="16" y="72" width="1" height="1" fill="#2B2118"/><rect x="17" y="72" width="6" height="1" fill="#E5D5B4"/><rect x="23" y="72" width="2" height="1" fill="#2B2118"/><rect x="25" y="72" width="6" height="1" fill="#E5D5B4"/><rect x="31" y="72" width="1" height="1" fill="#2B2118"/><rect x="15" y="73" width="2" height="1" fill="#2B2118"/><rect x="17" y="73" width="6" height="1" fill="#E5D5B4"/><rect x="23" y="73" width="2" height="1" fill="#2B2118"/><rect x="25" y="73" width="6" height="1" fill="#E5D5B4"/><rect x="31" y="73" width="2" height="1" fill="#2B2118"/><rect x="14" y="74" width="1" height="1" fill="#2B2118"/><rect x="15" y="74" width="18" height="1" fill="#A88C63"/><rect x="33" y="74" width="1" height="1" fill="#2B2118"/><rect x="14" y="75" width="1" height="1" fill="#2B2118"/><rect x="15" y="75" width="3" height="1" fill="#A88C63"/><rect x="18" y="75" width="1" height="1" fill="#2B2118"/><rect x="19" y="75" width="2" height="1" fill="#A88C63"/><rect x="21" y="75" width="1" height="1" fill="#2B2118"/><rect x="22" y="75" width="5" height="1" fill="#A88C63"/><rect x="27" y="75" width="1" height="1" fill="#2B2118"/><rect x="28" y="75" width="2" height="1" fill="#A88C63"/><rect x="30" y="75" width="1" height="1" fill="#2B2118"/><rect x="31" y="75" width="2" height="1" fill="#A88C63"/><rect x="33" y="75" width="1" height="1" fill="#2B2118"/><rect x="14" y="76" width="1" height="1" fill="#2B2118"/><rect x="15" y="76" width="3" height="1" fill="#A88C63"/><rect x="18" y="76" width="1" height="1" fill="#2B2118"/><rect x="19" y="76" width="2" height="1" fill="#A88C63"/><rect x="21" y="76" width="1" height="1" fill="#2B2118"/><rect x="22" y="76" width="5" height="1" fill="#A88C63"/><rect x="27" y="76" width="1" height="1" fill="#2B2118"/><rect x="28" y="76" width="2" height="1" fill="#A88C63"/><rect x="30" y="76" width="1" height="1" fill="#2B2118"/><rect x="31" y="76" width="2" height="1" fill="#A88C63"/><rect x="33" y="76" width="1" height="1" fill="#2B2118"/><rect x="14" y="77" width="1" height="1" fill="#2B2118"/><rect x="15" y="77" width="18" height="1" fill="#A88C63"/><rect x="33" y="77" width="1" height="1" fill="#2B2118"/><rect x="15" y="78" width="18" height="1" fill="#2B2118"/></svg>