<svg xmlns="http://www.w3.org/2000/svg" width="72" height="54" viewBox="0 0 12 9" shape-rendering="crispEdges" role="img" aria-label="chart"><rect x="0" y="0" width="12" height="1" fill="#2B2118"/><rect x="0" y="1" width="1" height="1" fill="#2B2118"/><rect x="1" y="1" width="10" height="1" fill="#0B3B3C"/><rect x="11" y="1" width="1" height="1" fill="#2B2118"/><rect x="0" y="2" width="1" height="1" fill="#2B2118"/><rect x="11" y="2" width="1" height="1" fill="#2B2118"/><rect x="0" y="3" width="1" height="1" fill="#2B2118"/><rect x="6" y="3" width="2" height="1" fill="#12C2C9"/><rect x="11" y="3" width="1" height="1" fill="#2B2118"/><rect x="0" y="4" width="1" height="1" fill="#2B2118"/><rect x="3" y="4" width="2" height="1" fill="#12C2C9"/><rect x="6" y="4" width="2" height="1" fill="#12C2C9"/><rect x="9" y="4" width="2" height="1" fill="#12C2C9"/><rect x="11" y="4" width="1" height="1" fill="#2B2118"/><rect x="0" y="5" width="1" height="1" fill="#2B2118"/><rect x="3" y="5" width="2" height="1" fill="#12C2C9"/><rect x="6" y="5" width="2" height="1" fill="#12C2C9"/><rect x="9" y="5" width="2" height="1" fill="#12C2C9"/><rect x="11" y="5" width="1" height="1" fill="#2B2118"/><rect x="0" y="6" width="1" height="1" fill="#2B2118"/><rect x="2" y="6" width="3" height="1" fill="#12C2C9"/><rect x="6" y="6" width="2" height="1" fill="#12C2C9"/><rect x="9" y="6" width="2" height="1" fill="#12C2C9"/><rect x="11" y="6" width="1" height="1" fill="#2B2118"/><rect x="0" y="7" width="1" height="1" fill="#2B2118"/><rect x="1" y="7" width="10" height="1" fill="#12C2C9"/><rect x="11" y="7" width="1" height="1" fill="#2B2118"/><rect x="0" y="8" width="12" height="1" fill="#2B2118"/></svg>